<!DOCTYPE svg PUBLIC "-//W3C//DTD SVG 1.1//EN" "http://www.w3.org/Graphics/SVG/1.1/DTD/svg11.dtd">
<!-- Uploaded to: SVG Repo, www.svgrepo.com, Transformed by: SVG Repo Mixer Tools -->
<svg fill="#1FB9EC" height="64px" width="64px" version="1.1" id="Layer_1" xmlns="http://www.w3.org/2000/svg" xmlns:xlink="http://www.w3.org/1999/xlink" viewBox="0 0 512 512" xml:space="preserve">
<g id="SVGRepo_bgCarrier" stroke-width="0"/>
<g id="SVGRepo_tracerCarrier" stroke-linecap="round" stroke-linejoin="round"/>
<g id="SVGRepo_iconCarrier"> <g> <g> <g> <path d="M164.379,436.72H78.147c-4.466,0-8.084,3.618-8.084,8.084c0,4.466,3.618,8.084,8.084,8.084h86.232 c4.466,0,8.084-3.618,8.084-8.084C172.463,440.338,168.845,436.72,164.379,436.72z"/> <path d="M101.322,288.338V158.99c0-1.486,1.208-2.695,2.695-2.695h237.137c4.466,0,8.084-3.618,8.084-8.084 c0-4.466-3.619-8.084-8.084-8.084H104.017c-10.401,0-18.863,8.463-18.863,18.863v129.347c0,4.466,3.619,8.084,8.084,8.084 S101.322,292.803,101.322,288.338z"/> <path d="M408.522,180.548v161.684c0,1.486-1.208,2.695-2.695,2.695H125.575c-4.466,0-8.084,3.618-8.084,8.084 c0,4.466,3.618,8.084,8.084,8.084h280.253c10.401,0,18.863-8.463,18.863-18.863V180.548c0-4.466-3.619-8.084-8.084-8.084 C412.141,172.464,408.522,176.082,408.522,180.548z"/> <path d="M432.227,55.635l20.161,20.054L285.082,236.497h-96.74c-2.136,0-4.187,0.847-5.701,2.353L80.868,340.084 c-3.165,3.147-3.179,8.266-0.03,11.432c1.579,1.589,3.655,2.383,5.731,2.383c2.062,0,4.124-0.785,5.701-2.353l99.408-98.881 h96.659c2.088,0,4.096-0.808,5.602-2.256L463.855,87.095l19.409,19.304c2.548,2.535,6.16,3.74,9.886,3.303 c6.361-0.747,11.724-6.094,12.476-12.439l6.251-52.753c0.591-4.988-0.982-9.762-4.314-13.099 c-3.345-3.347-8.137-4.936-13.162-4.342l-53.037,6.217c-6.357,0.747-11.72,6.093-12.474,12.44 c-0.443,3.742,0.773,7.352,3.334,9.904C432.224,55.632,432.226,55.633,432.227,55.635z M495.752,43.191l-5.599,47.256 l-41.91-41.687L495.752,43.191z"/> <path d="M433.853,436.72H272.168c-4.466,0-8.084,3.618-8.084,8.084c0,4.466,3.618,8.084,8.084,8.084h161.684 c4.466,0,8.084-3.618,8.084-8.084C441.937,440.338,438.318,436.72,433.853,436.72z"/> <path d="M202.105,436.72h-1.078c-4.466,0-8.084,3.618-8.084,8.084c0,4.466,3.618,8.084,8.084,8.084h1.078 c4.466,0,8.084-3.618,8.084-8.084C210.189,440.338,206.571,436.72,202.105,436.72z"/> <path d="M477.083,385.742c1.674-5.032,2.581-10.408,2.581-15.991v-235.88c0-2.599-0.199-5.209-0.591-7.76 c-0.679-4.413-4.803-7.448-9.218-6.763c-4.413,0.678-7.441,4.805-6.763,9.218c0.267,1.741,0.403,3.527,0.403,5.305v235.879 c0,19.191-15.715,34.803-35.032,34.803H83.537c-19.317,0-35.032-15.612-35.032-34.803V133.872 c0-19.19,15.715-34.802,35.032-34.802h323.368c4.466,0,8.084-3.619,8.084-8.084s-3.618-8.084-8.084-8.084H83.537 c-28.231,0-51.2,22.865-51.2,50.97v235.879c0,5.582,0.906,10.96,2.581,15.991C14.421,392.543,0,411.755,0,434.082 c0,28.106,22.969,50.971,51.2,50.971h409.6c28.231,0,51.2-22.865,51.2-50.971C512,411.755,497.579,392.543,477.083,385.742z M460.8,468.885H51.2c-19.317,0-35.032-15.612-35.032-34.803c0-16.152,11.076-29.921,26.434-33.745 c9.351,12.371,24.219,20.385,40.934,20.385h344.926c16.715,0,31.583-8.013,40.934-20.385 c15.358,3.823,26.434,17.591,26.434,33.745C495.832,453.273,480.117,468.885,460.8,468.885z"/> <path d="M235.52,436.72h-1.078c-4.466,0-8.084,3.618-8.084,8.084c0,4.466,3.618,8.084,8.084,8.084h1.078 c4.466,0,8.084-3.618,8.084-8.084C243.604,440.338,239.986,436.72,235.52,436.72z"/> </g> </g> </g> </g>
</svg>