<svg width="1247" height="216" viewBox="0 0 1247 216" fill="none" xmlns="http://www.w3.org/2000/svg">
<rect x="7" y="7" width="1233" height="186.706" stroke="#001435" stroke-width="14"/>
<path d="M225.586 144.357L205.042 79.6534H204.658V141.093H215.218V143.493H190.354V141.093H200.914V73.5094H190.354V71.1094H216.37L231.634 121.797H232.018L247.666 71.1094H272.914V73.5094H262.354V141.093H272.914V143.493H238.93V141.093H249.49V79.6534H249.106L229.042 144.357H225.586ZM319.934 142.053L302.27 89.2534H301.886L301.214 86.4694L305.822 69.9574H308.702L332.798 142.053H319.934ZM272.51 143.493V141.093H295.55V143.493H272.51ZM291.23 120.837V118.437H322.334V120.837H291.23ZM308.414 143.493V141.093H341.342V143.493H308.414ZM280.766 142.053L305.822 69.9574H308.702L302.846 86.4694L283.934 142.053H280.766ZM341.106 143.493V141.093H351.666V73.5094H341.106V71.1094H375.09V73.5094H364.53V105.093H392.178V73.5094H381.618V71.1094H415.602V73.5094H405.042V141.093H415.602V143.493H381.618V141.093H392.178V107.493H364.53V141.093H375.09V143.493H341.106ZM417.501 143.493V141.093H459.549C462.749 141.093 465.437 140.165 467.613 138.309C469.853 136.453 471.581 133.989 472.797 130.917C474.013 127.845 474.653 124.517 474.717 120.933H478.077V143.493H417.501ZM428.829 142.053V72.0694H441.693V142.053H428.829ZM456.573 122.757C456.509 119.173 456.029 116.357 455.133 114.309C454.237 112.261 452.701 110.821 450.525 109.989C448.413 109.093 445.373 108.645 441.405 108.645V106.245C445.373 106.245 448.445 105.861 450.621 105.093C452.861 104.325 454.397 102.981 455.229 101.061C456.125 99.1414 456.573 96.4534 456.573 92.9974H459.933V122.757H456.573ZM471.837 90.7894C471.773 87.6534 471.133 84.8054 469.917 82.2454C468.701 79.6214 466.973 77.5094 464.733 75.9094C462.557 74.3094 459.869 73.5094 456.669 73.5094H417.501V71.1094H475.197V90.7894H471.837ZM511.026 144.645C507.57 144.645 504.594 144.165 502.098 143.205C499.666 142.245 497.266 140.837 494.898 138.981L491.442 143.493H489.042V123.333H491.538C492.306 126.405 493.49 129.349 495.09 132.165C496.69 134.917 498.834 137.189 501.522 138.981C504.274 140.773 507.698 141.669 511.794 141.669C515.442 141.669 518.45 140.997 520.818 139.653C523.25 138.245 525.042 136.485 526.194 134.373C527.41 132.197 528.018 129.957 528.018 127.653C528.018 125.605 527.57 123.813 526.674 122.277C525.842 120.741 524.594 119.429 522.93 118.341C521.266 117.189 519.314 116.197 517.074 115.365C514.834 114.533 512.306 113.797 509.49 113.157C504.882 112.069 501.106 110.533 498.162 108.549C495.282 106.565 493.138 104.165 491.73 101.349C490.322 98.4694 489.618 95.1414 489.618 91.3654C489.618 86.6934 490.642 82.7894 492.69 79.6534C494.738 76.4534 497.426 74.0534 500.754 72.4534C504.082 70.7894 507.634 69.9574 511.41 69.9574C514.482 69.9574 517.138 70.4054 519.378 71.3014C521.682 72.1334 524.018 73.4774 526.386 75.3334L528.882 71.1094H531.282V90.6934L528.882 90.7894C527.346 84.7094 525.074 80.1974 522.066 77.2534C519.058 74.3094 515.378 72.8374 511.026 72.8374C508.402 72.8374 505.938 73.3814 503.634 74.4694C501.394 75.5574 499.602 77.0294 498.258 78.8854C496.914 80.6774 496.242 82.7574 496.242 85.1254C496.242 87.1094 496.658 88.7734 497.49 90.1174C498.322 91.3974 499.506 92.4854 501.042 93.3814C502.578 94.2774 504.37 95.0454 506.418 95.6854C508.53 96.3254 510.834 96.9974 513.33 97.7014C517.938 98.9174 521.778 100.517 524.85 102.501C527.922 104.421 530.226 106.917 531.762 109.989C533.362 112.997 534.162 116.741 534.162 121.221C534.162 128.453 532.146 134.181 528.114 138.405C524.146 142.565 518.45 144.645 511.026 144.645ZM540.231 143.493V141.093H550.791V73.5094H540.231V71.1094H574.215V73.5094H563.655V105.093H591.303V73.5094H580.743V71.1094H614.727V73.5094H604.167V141.093H614.727V143.493H580.743V141.093H591.303V107.493H563.655V141.093H574.215V143.493H540.231ZM676.45 143.493V141.093H687.01V73.5094H676.45V71.1094H710.434V73.5094H699.874V105.093H727.522V73.5094H716.962V71.1094H750.946V73.5094H740.386V141.093H750.946V143.493H716.962V141.093H727.522V107.493H699.874V141.093H710.434V143.493H676.45ZM789.229 144.645C784.109 144.645 779.629 143.941 775.789 142.533C772.013 141.061 769.069 138.853 766.957 135.909C764.909 132.965 763.885 129.253 763.885 124.773V73.5094H752.653V71.1094H785.869V73.5094H776.749V124.677C776.749 130.629 778.125 134.885 780.877 137.445C783.629 140.005 787.405 141.285 792.205 141.285C797.325 141.285 801.389 139.909 804.397 137.157C807.405 134.405 808.909 130.245 808.909 124.677V73.5094H798.829V71.1094H822.157V73.5094H812.077V124.677C812.077 131.525 810.157 136.581 806.317 139.845C802.541 143.045 796.845 144.645 789.229 144.645ZM823.914 143.493V141.093H856.074C860.042 141.093 863.402 140.613 866.154 139.653C868.906 138.693 871.146 136.997 872.874 134.565C874.602 132.069 875.85 128.613 876.618 124.197C877.45 119.781 877.866 114.149 877.866 107.301C877.866 100.453 877.45 94.8214 876.618 90.4054C875.85 85.9894 874.57 82.5654 872.778 80.1334C871.05 77.6374 868.81 75.9094 866.058 74.9494C863.306 73.9894 859.946 73.5094 855.978 73.5094H823.914V71.1094H859.05C863.85 71.1094 868.298 72.1014 872.394 74.0854C876.554 76.0054 880.202 78.6614 883.338 82.0534C886.474 85.4454 888.906 89.3174 890.634 93.6694C892.362 98.0214 893.226 102.565 893.226 107.301C893.226 112.037 892.33 116.581 890.538 120.933C888.81 125.285 886.378 129.157 883.242 132.549C880.17 135.941 876.554 138.629 872.394 140.613C868.234 142.533 863.754 143.493 858.954 143.493H823.914ZM834.474 142.053V71.1094H847.338V142.053H834.474ZM938.403 142.053L920.739 89.2534H920.355L919.683 86.4694L924.291 69.9574H927.171L951.267 142.053H938.403ZM890.979 143.493V141.093H914.019V143.493H890.979ZM909.699 120.837V118.437H940.803V120.837H909.699ZM926.883 143.493V141.093H959.811V143.493H926.883ZM899.235 142.053L924.291 69.9574H927.171L921.315 86.4694L902.403 142.053H899.235ZM959.575 143.493V141.093H1000.18C1003.38 141.093 1006.07 140.165 1008.25 138.309C1010.49 136.453 1012.22 133.989 1013.43 130.917C1014.65 127.845 1015.29 124.517 1015.35 120.933H1018.71V143.493H959.575ZM970.903 142.053V71.1094H983.767V142.053H970.903ZM959.575 73.5094V71.1094H995.383V73.5094H959.575ZM1033.7 142.053V71.1094H1046.56V142.053H1033.7ZM1023.14 143.493V141.093H1057.12V143.493H1023.14ZM1023.14 73.5094V71.1094H1057.12V73.5094H1023.14Z" fill="#F0AB00"/>
<path d="M384 170C384 165.582 387.582 162 392 162H855C859.418 162 863 165.582 863 170V208C863 212.418 859.418 216 855 216H392C387.582 216 384 212.418 384 208V170Z" fill="#001435"/>
<path d="M437.294 201V200H440.454V184H437.294V183H444.854V186.16H445.014C445.681 184.72 446.441 183.76 447.294 183.28C448.174 182.773 448.988 182.52 449.734 182.52C450.588 182.52 451.254 182.773 451.734 183.28C452.241 183.76 452.494 184.453 452.494 185.36C452.494 186.187 452.241 186.8 451.734 187.2C451.254 187.573 450.708 187.76 450.094 187.76C449.588 187.76 449.121 187.627 448.694 187.36C448.294 187.067 448.094 186.667 448.094 186.16C448.094 186 448.108 185.867 448.134 185.76C448.188 185.627 448.214 185.493 448.214 185.36C448.214 185.227 448.174 185.107 448.094 185C448.014 184.893 447.841 184.84 447.574 184.84C447.228 184.84 446.841 185.12 446.414 185.68C445.988 186.213 445.614 186.947 445.294 187.88C445.001 188.787 444.854 189.8 444.854 190.92V200H448.454V201H437.294ZM462.808 201.48C461.474 201.48 460.208 201.093 459.008 200.32C457.834 199.52 456.874 198.413 456.128 197C455.408 195.56 455.048 193.893 455.048 192C455.048 190.107 455.408 188.453 456.128 187.04C456.874 185.6 457.834 184.493 459.008 183.72C460.181 182.92 461.434 182.52 462.768 182.52C464.021 182.52 465.114 182.787 466.048 183.32C467.008 183.853 467.701 184.52 468.128 185.32H469.088L468.288 191.4C468.288 188.787 467.808 186.88 466.848 185.68C465.914 184.48 464.728 183.88 463.288 183.88C462.541 183.88 461.941 184.107 461.488 184.56C461.034 184.987 460.701 185.787 460.488 186.96C460.274 188.133 460.168 189.827 460.168 192.04C460.168 194.227 460.261 195.907 460.448 197.08C460.661 198.253 460.994 199.053 461.448 199.48C461.901 199.907 462.501 200.12 463.248 200.12C464.688 200.12 465.888 199.52 466.848 198.32C467.808 197.093 468.288 195.187 468.288 192.6L469.088 198.68H468.128C467.701 199.48 467.021 200.147 466.088 200.68C465.154 201.213 464.061 201.48 462.808 201.48ZM468.288 201V200H475.408V201H468.288ZM468.288 200.4V171.48H472.688V200.4H468.288ZM464.328 171.84V170.84H472.688V171.84H464.328ZM491.702 200.4V186.88C491.702 185.867 491.475 185.12 491.022 184.64C490.595 184.133 489.982 183.88 489.182 183.88C488.275 183.88 487.435 184.24 486.662 184.96C485.915 185.68 485.315 186.667 484.862 187.92C484.435 189.147 484.222 190.547 484.222 192.12L483.422 186.32H484.382C484.969 185.227 485.755 184.32 486.742 183.6C487.729 182.88 489.009 182.52 490.582 182.52C492.209 182.52 493.529 182.947 494.542 183.8C495.582 184.627 496.102 185.653 496.102 186.88V200.4H491.702ZM476.662 201V200H486.822V201H476.662ZM488.662 201V200H498.822V201H488.662ZM479.822 200.4V171.48H484.222V200.4H479.822ZM476.662 171.84V170.84H484.222V171.84H476.662ZM508.33 201.48C506.783 201.48 505.517 201.067 504.53 200.24C503.57 199.387 503.09 198.347 503.09 197.12V183.6H507.49V197C507.49 197.987 507.69 198.733 508.09 199.24C508.49 199.747 509.037 200 509.73 200C510.557 200 511.317 199.64 512.01 198.92C512.73 198.2 513.303 197.227 513.73 196C514.183 194.773 514.41 193.4 514.41 191.88L515.21 197.88H514.25C513.663 198.92 512.903 199.787 511.97 200.48C511.037 201.147 509.823 201.48 508.33 201.48ZM514.41 201V200H521.97V201H514.41ZM499.97 184V183H507.49V184H499.97ZM514.41 200.36V183.6H518.81V200.36H514.41ZM511.13 184V183H518.81V184H511.13ZM532.183 201.48C530.849 201.48 529.583 201.093 528.383 200.32C527.209 199.52 526.249 198.413 525.503 197C524.783 195.56 524.423 193.893 524.423 192C524.423 190.107 524.783 188.453 525.503 187.04C526.249 185.6 527.209 184.493 528.383 183.72C529.556 182.92 530.809 182.52 532.143 182.52C533.396 182.52 534.489 182.787 535.423 183.32C536.383 183.853 537.076 184.52 537.503 185.32H538.463L537.663 191.4C537.663 188.787 537.183 186.88 536.223 185.68C535.289 184.48 534.103 183.88 532.663 183.88C531.916 183.88 531.316 184.107 530.863 184.56C530.409 184.987 530.076 185.787 529.863 186.96C529.649 188.133 529.543 189.827 529.543 192.04C529.543 194.227 529.636 195.907 529.823 197.08C530.036 198.253 530.369 199.053 530.823 199.48C531.276 199.907 531.876 200.12 532.623 200.12C534.063 200.12 535.263 199.52 536.223 198.32C537.183 197.093 537.663 195.187 537.663 192.6L538.463 198.68H537.503C537.076 199.48 536.396 200.147 535.463 200.68C534.529 201.213 533.436 201.48 532.183 201.48ZM537.663 201V200H544.783V201H537.663ZM537.663 200.4V171.48H542.063V200.4H537.663ZM533.703 171.84V170.84H542.063V171.84H533.703ZM551.757 201.48C550.317 201.48 549.144 201.067 548.237 200.24C547.33 199.413 546.877 198.333 546.877 197C546.877 195.72 547.304 194.627 548.157 193.72C549.037 192.813 550.277 192.12 551.877 191.64C553.477 191.133 555.37 190.88 557.557 190.88V186C557.557 185.307 557.29 184.76 556.757 184.36C556.224 183.96 555.49 183.76 554.557 183.76C553.757 183.76 553.104 183.893 552.597 184.16C552.09 184.427 551.837 184.773 551.837 185.2C551.837 185.467 551.93 185.707 552.117 185.92C552.304 186.133 552.397 186.467 552.397 186.92C552.397 187.48 552.184 187.947 551.757 188.32C551.357 188.667 550.837 188.84 550.197 188.84C549.557 188.84 549.05 188.653 548.677 188.28C548.304 187.88 548.117 187.387 548.117 186.8C548.117 186 548.437 185.28 549.077 184.64C549.717 183.973 550.584 183.453 551.677 183.08C552.77 182.707 553.997 182.52 555.357 182.52C557.304 182.52 558.89 182.907 560.117 183.68C561.344 184.427 561.957 185.413 561.957 186.64V198.8C561.957 199.067 562.037 199.293 562.197 199.48C562.384 199.64 562.597 199.72 562.837 199.72C563.077 199.72 563.357 199.6 563.677 199.36C563.997 199.093 564.397 198.693 564.877 198.16L565.437 198.8C564.184 200.587 562.784 201.48 561.237 201.48C560.304 201.48 559.53 201.227 558.917 200.72C558.33 200.187 557.93 199.453 557.717 198.52H557.557C557.05 199.373 556.25 200.08 555.157 200.64C554.064 201.2 552.93 201.48 551.757 201.48ZM554.157 199.28C555.17 199.28 555.984 198.907 556.597 198.16C557.237 197.387 557.557 196.387 557.557 195.16V191.92C555.557 191.92 554.05 192.293 553.037 193.04C552.024 193.76 551.517 194.827 551.517 196.24C551.517 197.2 551.744 197.947 552.197 198.48C552.677 199.013 553.33 199.28 554.157 199.28ZM569.151 200.4V171.48H573.551V200.4H569.151ZM565.991 201V200H576.751V201H565.991ZM565.991 171.84V170.84H573.551V171.84H565.991ZM581.867 200.4V184H586.267V200.4H581.867ZM578.707 201V200H589.467V201H578.707ZM578.307 184.36V183.36H586.267V184.36H578.307ZM583.987 177.08C583.267 177.08 582.641 176.827 582.107 176.32C581.601 175.787 581.347 175.16 581.347 174.44C581.347 173.72 581.601 173.107 582.107 172.6C582.641 172.067 583.267 171.8 583.987 171.8C584.707 171.8 585.321 172.067 585.827 172.6C586.361 173.107 586.627 173.72 586.627 174.44C586.627 175.16 586.361 175.787 585.827 176.32C585.321 176.827 584.707 177.08 583.987 177.08ZM606.31 207.08C603.91 207.08 601.724 206.573 599.75 205.56C597.777 204.547 596.204 203 595.03 200.92C593.884 198.84 593.31 196.213 593.31 193.04C593.31 190.293 593.75 187.853 594.63 185.72C595.51 183.587 596.697 181.787 598.19 180.32C599.71 178.827 601.444 177.707 603.39 176.96C605.364 176.187 607.43 175.8 609.59 175.8C612.23 175.8 614.457 176.32 616.27 177.36C618.11 178.4 619.51 179.813 620.47 181.6C621.43 183.387 621.91 185.387 621.91 187.6C621.91 189.2 621.67 190.707 621.19 192.12C620.71 193.507 620.044 194.747 619.19 195.84C618.337 196.907 617.337 197.747 616.19 198.36C615.07 198.947 613.87 199.24 612.59 199.24C611.55 199.24 610.75 199.027 610.19 198.6C609.63 198.147 609.35 197.453 609.35 196.52C609.35 196.227 609.39 195.867 609.47 195.44C609.55 195.013 609.697 194.347 609.91 193.44L612.43 183.28H616.75L613.79 195.76C613.71 196.027 613.67 196.253 613.67 196.44C613.67 196.973 614.017 197.24 614.71 197.24C615.617 197.24 616.51 196.84 617.39 196.04C618.297 195.24 619.057 194.133 619.67 192.72C620.284 191.28 620.59 189.627 620.59 187.76C620.59 185.413 620.097 183.453 619.11 181.88C618.124 180.28 616.79 179.067 615.11 178.24C613.43 177.413 611.55 177 609.47 177C607.444 177 605.524 177.387 603.71 178.16C601.924 178.933 600.35 180.04 598.99 181.48C597.63 182.893 596.564 184.587 595.79 186.56C595.017 188.507 594.63 190.667 594.63 193.04C594.63 195.547 595.084 197.773 595.99 199.72C596.897 201.64 598.217 203.147 599.95 204.24C601.71 205.333 603.83 205.88 606.31 205.88C607.297 205.88 608.35 205.76 609.47 205.52C610.59 205.28 611.724 204.827 612.87 204.16C614.017 203.493 615.124 202.533 616.19 201.28L616.91 202.28C615.204 204.013 613.497 205.24 611.79 205.96C610.11 206.707 608.284 207.08 606.31 207.08ZM604.55 199.24C603.724 199.24 602.924 199.027 602.15 198.6C601.377 198.173 600.737 197.52 600.23 196.64C599.75 195.76 599.51 194.627 599.51 193.24C599.51 191.827 599.777 190.493 600.31 189.24C600.844 187.987 601.537 186.88 602.39 185.92C603.27 184.96 604.244 184.213 605.31 183.68C606.377 183.12 607.43 182.84 608.47 182.84C609.324 182.84 609.99 183.04 610.47 183.44C610.95 183.84 611.364 184.493 611.71 185.4H611.95L611.15 188.64C611.15 188.373 611.164 188.16 611.19 188C611.217 187.813 611.23 187.6 611.23 187.36C611.23 186.533 611.044 185.8 610.67 185.16C610.297 184.52 609.777 184.2 609.11 184.2C608.47 184.2 607.844 184.533 607.23 185.2C606.617 185.84 606.057 186.693 605.55 187.76C605.044 188.827 604.644 190 604.35 191.28C604.057 192.56 603.91 193.827 603.91 195.08C603.91 196.093 604.017 196.8 604.23 197.2C604.47 197.6 604.844 197.8 605.35 197.8C605.857 197.8 606.43 197.613 607.07 197.24C607.737 196.84 608.377 196.187 608.99 195.28C609.63 194.347 610.124 193.093 610.47 191.52L609.35 196.4H609.07C608.697 197.067 608.137 197.707 607.39 198.32C606.644 198.933 605.697 199.24 604.55 199.24ZM633.509 214.04C632.015 214.04 630.669 213.787 629.469 213.28C628.269 212.773 627.322 212.08 626.629 211.2C625.962 210.32 625.629 209.333 625.629 208.24C625.629 207.253 625.895 206.347 626.429 205.52C626.989 204.693 627.749 204.027 628.709 203.52V203.36C627.722 202.933 626.989 202.347 626.509 201.6C626.029 200.88 625.789 199.987 625.789 198.92C625.789 197.587 626.162 196.533 626.909 195.76C627.682 194.987 628.762 194.533 630.149 194.4C629.162 193.813 628.349 193.04 627.709 192.08C627.069 191.093 626.749 190.053 626.749 188.96C626.749 187.84 627.069 186.8 627.709 185.84C628.349 184.853 629.189 184.053 630.229 183.44C631.269 182.827 632.389 182.52 633.589 182.52C634.602 182.52 635.549 182.747 636.429 183.2C637.335 183.627 638.109 184.2 638.749 184.92C639.042 184.2 639.469 183.627 640.029 183.2C640.589 182.747 641.215 182.52 641.909 182.52C642.549 182.52 643.069 182.707 643.469 183.08C643.869 183.427 644.069 183.88 644.069 184.44C644.069 184.947 643.922 185.36 643.629 185.68C643.335 185.973 642.935 186.12 642.429 186.12C641.949 186.12 641.615 186 641.429 185.76C641.269 185.493 641.122 185.24 640.989 185C640.882 184.76 640.669 184.64 640.349 184.64C640.135 184.64 639.962 184.747 639.829 184.96C639.722 185.147 639.642 185.493 639.589 186C639.882 186.453 640.095 186.933 640.229 187.44C640.389 187.92 640.469 188.427 640.469 188.96C640.469 190.053 640.149 191.093 639.509 192.08C638.869 193.067 638.015 193.867 636.949 194.48C635.909 195.067 634.789 195.36 633.589 195.36H631.069C630.002 195.36 629.122 195.573 628.429 196C627.735 196.427 627.389 197 627.389 197.72C627.389 198.227 627.589 198.64 627.989 198.96C628.389 199.253 628.922 199.4 629.589 199.4H637.869C639.015 199.4 639.949 199.587 640.669 199.96C641.389 200.307 641.922 200.867 642.269 201.64C642.615 202.413 642.789 203.4 642.789 204.6C642.789 206.493 642.402 208.147 641.629 209.56C640.855 210.973 639.775 212.067 638.389 212.84C637.002 213.64 635.375 214.04 633.509 214.04ZM633.869 212.84C635.149 212.84 636.335 212.533 637.429 211.92C638.549 211.307 639.442 210.493 640.109 209.48C640.802 208.493 641.149 207.427 641.149 206.28C641.149 205.4 640.935 204.707 640.509 204.2C640.082 203.72 639.482 203.48 638.709 203.48H630.269C629.789 203.827 629.375 204.427 629.029 205.28C628.682 206.16 628.509 207.027 628.509 207.88C628.509 209.32 629.015 210.507 630.029 211.44C631.042 212.373 632.322 212.84 633.869 212.84ZM633.549 194.28C634.295 194.28 634.869 194.133 635.269 193.84C635.669 193.52 635.949 192.973 636.109 192.2C636.269 191.427 636.349 190.36 636.349 189C636.349 187.64 636.269 186.587 636.109 185.84C635.949 185.093 635.669 184.573 635.269 184.28C634.869 183.96 634.295 183.8 633.549 183.8C632.829 183.8 632.269 183.947 631.869 184.24C631.495 184.533 631.229 185.053 631.069 185.8C630.935 186.547 630.869 187.613 630.869 189C630.869 190.387 630.935 191.467 631.069 192.24C631.229 192.987 631.495 193.52 631.869 193.84C632.269 194.133 632.829 194.28 633.549 194.28ZM671.652 200.4V186.88C671.652 184.88 670.892 183.88 669.372 183.88C668.519 183.88 667.732 184.24 667.012 184.96C666.292 185.68 665.719 186.667 665.292 187.92C664.865 189.147 664.652 190.547 664.652 192.12L663.852 186.32H664.812C665.345 185.227 666.092 184.32 667.052 183.6C668.039 182.88 669.279 182.52 670.772 182.52C672.319 182.52 673.585 182.947 674.572 183.8C675.559 184.627 676.052 185.653 676.052 186.88V200.4H671.652ZM645.692 201V200H655.852V201H645.692ZM648.852 200.4V183.64H653.252V200.4H648.852ZM657.212 201V200H667.372V201H657.212ZM645.692 184V183H653.252V184H645.692ZM660.252 200.4V186.88C660.252 184.88 659.492 183.88 657.972 183.88C657.119 183.88 656.332 184.24 655.612 184.96C654.892 185.68 654.319 186.667 653.892 187.92C653.465 189.147 653.252 190.547 653.252 192.12L652.452 186.32H653.412C653.945 185.227 654.692 184.32 655.652 183.6C656.639 182.88 657.879 182.52 659.372 182.52C660.919 182.52 662.185 182.947 663.172 183.8C664.159 184.627 664.652 185.653 664.652 186.88V200.4H660.252ZM668.612 201V200H678.772V201H668.612ZM686.171 201.48C684.731 201.48 683.558 201.067 682.651 200.24C681.744 199.413 681.291 198.333 681.291 197C681.291 195.72 681.718 194.627 682.571 193.72C683.451 192.813 684.691 192.12 686.291 191.64C687.891 191.133 689.784 190.88 691.971 190.88V186C691.971 185.307 691.704 184.76 691.171 184.36C690.638 183.96 689.904 183.76 688.971 183.76C688.171 183.76 687.518 183.893 687.011 184.16C686.504 184.427 686.251 184.773 686.251 185.2C686.251 185.467 686.344 185.707 686.531 185.92C686.718 186.133 686.811 186.467 686.811 186.92C686.811 187.48 686.598 187.947 686.171 188.32C685.771 188.667 685.251 188.84 684.611 188.84C683.971 188.84 683.464 188.653 683.091 188.28C682.718 187.88 682.531 187.387 682.531 186.8C682.531 186 682.851 185.28 683.491 184.64C684.131 183.973 684.998 183.453 686.091 183.08C687.184 182.707 688.411 182.52 689.771 182.52C691.718 182.52 693.304 182.907 694.531 183.68C695.758 184.427 696.371 185.413 696.371 186.64V198.8C696.371 199.067 696.451 199.293 696.611 199.48C696.798 199.64 697.011 199.72 697.251 199.72C697.491 199.72 697.771 199.6 698.091 199.36C698.411 199.093 698.811 198.693 699.291 198.16L699.851 198.8C698.598 200.587 697.198 201.48 695.651 201.48C694.718 201.48 693.944 201.227 693.331 200.72C692.744 200.187 692.344 199.453 692.131 198.52H691.971C691.464 199.373 690.664 200.08 689.571 200.64C688.478 201.2 687.344 201.48 686.171 201.48ZM688.571 199.28C689.584 199.28 690.398 198.907 691.011 198.16C691.651 197.387 691.971 196.387 691.971 195.16V191.92C689.971 191.92 688.464 192.293 687.451 193.04C686.438 193.76 685.931 194.827 685.931 196.24C685.931 197.2 686.158 197.947 686.611 198.48C687.091 199.013 687.744 199.28 688.571 199.28ZM704.445 200.4V184H708.845V200.4H704.445ZM701.285 201V200H712.045V201H701.285ZM700.885 184.36V183.36H708.845V184.36H700.885ZM706.565 177.08C705.845 177.08 705.219 176.827 704.685 176.32C704.179 175.787 703.925 175.16 703.925 174.44C703.925 173.72 704.179 173.107 704.685 172.6C705.219 172.067 705.845 171.8 706.565 171.8C707.285 171.8 707.899 172.067 708.405 172.6C708.939 173.107 709.205 173.72 709.205 174.44C709.205 175.16 708.939 175.787 708.405 176.32C707.899 176.827 707.285 177.08 706.565 177.08ZM716.768 200.4V171.48H721.168V200.4H716.768ZM713.608 201V200H724.368V201H713.608ZM713.608 171.84V170.84H721.168V171.84H713.608ZM729.444 201.48C728.644 201.48 727.951 201.2 727.364 200.64C726.804 200.053 726.524 199.36 726.524 198.56C726.524 197.76 726.804 197.08 727.364 196.52C727.951 195.933 728.644 195.64 729.444 195.64C730.244 195.64 730.924 195.933 731.484 196.52C732.071 197.08 732.364 197.76 732.364 198.56C732.364 199.36 732.071 200.053 731.484 200.64C730.924 201.2 730.244 201.48 729.444 201.48ZM745.188 201.48C743.908 201.48 742.708 201.213 741.588 200.68C740.468 200.147 739.481 199.427 738.628 198.52C737.775 197.613 737.108 196.6 736.628 195.48C736.148 194.333 735.908 193.16 735.908 191.96C735.908 190.787 736.148 189.64 736.628 188.52C737.108 187.4 737.775 186.387 738.628 185.48C739.481 184.573 740.495 183.853 741.668 183.32C742.841 182.787 744.121 182.52 745.508 182.52C746.681 182.52 747.748 182.72 748.708 183.12C749.695 183.493 750.468 184.027 751.028 184.72C751.615 185.387 751.908 186.173 751.908 187.08C751.908 187.853 751.681 188.467 751.228 188.92C750.775 189.373 750.201 189.6 749.508 189.6C748.868 189.6 748.295 189.413 747.788 189.04C747.281 188.667 747.028 188.107 747.028 187.36C747.028 186.907 747.108 186.56 747.268 186.32C747.428 186.08 747.588 185.867 747.748 185.68C747.908 185.467 747.988 185.2 747.988 184.88C747.988 184.427 747.775 184.107 747.348 183.92C746.921 183.707 746.295 183.6 745.468 183.6C744.428 183.6 743.588 183.827 742.948 184.28C742.308 184.733 741.841 185.573 741.548 186.8C741.255 188 741.108 189.747 741.108 192.04C741.108 194.2 741.241 195.88 741.508 197.08C741.775 198.28 742.215 199.12 742.828 199.6C743.441 200.053 744.268 200.28 745.308 200.28C746.775 200.28 747.988 199.88 748.948 199.08C749.935 198.28 750.788 196.933 751.508 195.04H752.628C752.121 196.96 751.228 198.52 749.948 199.72C748.695 200.893 747.108 201.48 745.188 201.48ZM765.383 201.48C764.076 201.48 762.85 201.213 761.703 200.68C760.583 200.147 759.583 199.44 758.703 198.56C757.85 197.653 757.183 196.64 756.703 195.52C756.223 194.373 755.983 193.2 755.983 192C755.983 190.8 756.223 189.64 756.703 188.52C757.183 187.373 757.85 186.36 758.703 185.48C759.583 184.573 760.583 183.853 761.703 183.32C762.85 182.787 764.076 182.52 765.383 182.52C766.69 182.52 767.903 182.787 769.023 183.32C770.17 183.853 771.17 184.573 772.023 185.48C772.903 186.36 773.583 187.373 774.063 188.52C774.543 189.64 774.783 190.8 774.783 192C774.783 193.2 774.543 194.373 774.063 195.52C773.583 196.64 772.903 197.653 772.023 198.56C771.17 199.44 770.17 200.147 769.023 200.68C767.903 201.213 766.69 201.48 765.383 201.48ZM765.383 200.28C766.396 200.28 767.21 200.053 767.823 199.6C768.436 199.147 768.876 198.333 769.143 197.16C769.436 195.96 769.583 194.24 769.583 192C769.583 189.76 769.436 188.04 769.143 186.84C768.876 185.64 768.436 184.827 767.823 184.4C767.21 183.947 766.396 183.72 765.383 183.72C764.37 183.72 763.556 183.947 762.943 184.4C762.33 184.827 761.876 185.64 761.583 186.84C761.316 188.04 761.183 189.76 761.183 192C761.183 194.24 761.316 195.96 761.583 197.16C761.876 198.333 762.33 199.147 762.943 199.6C763.556 200.053 764.37 200.28 765.383 200.28ZM803.644 200.4V186.88C803.644 184.88 802.884 183.88 801.364 183.88C800.511 183.88 799.724 184.24 799.004 184.96C798.284 185.68 797.711 186.667 797.284 187.92C796.857 189.147 796.644 190.547 796.644 192.12L795.844 186.32H796.804C797.337 185.227 798.084 184.32 799.044 183.6C800.031 182.88 801.271 182.52 802.764 182.52C804.311 182.52 805.577 182.947 806.564 183.8C807.551 184.627 808.044 185.653 808.044 186.88V200.4H803.644ZM777.684 201V200H787.844V201H777.684ZM780.844 200.4V183.64H785.244V200.4H780.844ZM789.204 201V200H799.364V201H789.204ZM777.684 184V183H785.244V184H777.684ZM792.244 200.4V186.88C792.244 184.88 791.484 183.88 789.964 183.88C789.111 183.88 788.324 184.24 787.604 184.96C786.884 185.68 786.311 186.667 785.884 187.92C785.457 189.147 785.244 190.547 785.244 192.12L784.444 186.32H785.404C785.937 185.227 786.684 184.32 787.644 183.6C788.631 182.88 789.871 182.52 791.364 182.52C792.911 182.52 794.177 182.947 795.164 183.8C796.151 184.627 796.644 185.653 796.644 186.88V200.4H792.244ZM800.604 201V200H810.764V201H800.604Z" fill="#F0AB00"/>
</svg>
